<?xml version="1.0" encoding="UTF-8"?>
<svg width="700px" height="700px" version="1.1" viewBox="0 0 700 500" xmlns="http://www.w3.org/2000/svg" xmlns:xlink="http://www.w3.org/1999/xlink">
 <g>
  <path d="m588.86 273.59c0-132.09-107.08-239.16-239.16-239.16-132.09 0-239.16 107.07-239.16 239.16 0 0.33203 0.023437 0.66016 0.023437 0.99219l-0.023437-0.003906v106.34l0.24609 5.4922c5.2344 76.648 110.17 137.81 238.91 137.81 128.74 0 233.67-61.168 238.91-137.81l0.24609-3.625v-108.21h-0.027344c0-0.32812 0.027344-0.66016 0.027344-0.98828zm-42.582 84.867v5.8633 5.875c0 57.5-88.531 104.11-197.71 104.11-109.2 0-197.71-46.602-197.71-104.11v-5.2461-6.4922l0.003906-56.914c0-52.941 42.914-95.867 95.859-95.867h203.7c52.949 0 95.871 42.926 95.871 95.867z"/>
  <path d="m441.89 225.88h-186.66c-48.512 0-87.836 32.637-87.836 72.91v21.129 4.9375 26.086c0 63.402 81.098 79.258 181.16 79.258 100.06 0 181.16-17.254 181.16-79.258v-26.562-4.4648-21.129c0.003906-40.27-39.332-72.906-87.828-72.906zm-225.54 113.13c-7.4922 0-13.57-6.0742-13.57-13.562 0-7.5 6.0742-13.562 13.57-13.562 7.4922 0 13.559 6.0664 13.559 13.562-0.003906 7.4844-6.0664 13.562-13.559 13.562zm50.336-23.477c-19.305 0-34.949-15.656-34.949-34.961 0-19.297 15.645-34.949 34.949-34.949s34.945 15.645 34.945 34.949c0.003907 19.305-15.641 34.961-34.945 34.961z"/>
 </g>
</svg>
