<?xml version="1.0" encoding="UTF-8"?>
<svg width="1200pt" height="1200pt" version="1.1" viewBox="0 0 1200 1200" xmlns="http://www.w3.org/2000/svg">
 <g>
  <path d="m1111.8 586.26c0-283.05-229.45-512.48-512.48-512.48-283.04 0-512.47 229.44-512.47 512.48 0 0.70703 0.046875 1.4141 0.046875 2.125l-0.046875-0.003907v227.88l0.52734 11.773c11.219 164.24 236.07 295.31 511.95 295.31 275.87 0 500.72-131.07 511.96-295.31l0.52734-7.7656v-231.89h-0.058594c0-0.70703 0.058594-1.4141 0.058594-2.1211zm-91.246 181.86v12.562 12.59c0 123.21-189.71 223.08-423.67 223.08-233.99 0-423.67-99.863-423.67-223.08v-11.242-13.906l-0.003906-121.96c0-113.45 91.957-205.43 205.41-205.43h436.49c113.46 0 205.44 91.98 205.44 205.43z"/>
  <path d="m796.92 484.02h-400c-103.96 0-188.22 69.938-188.22 156.24v45.277 10.586 55.895c0 135.86 173.79 169.84 388.21 169.84 214.41 0 388.21-36.973 388.21-169.84v-56.914-9.5625-45.277c0-86.305-84.289-156.24-188.21-156.24zm-483.31 242.43c-16.055 0-29.074-13.02-29.074-29.062 0-16.066 13.02-29.062 29.074-29.062s29.051 12.996 29.051 29.062c0 16.043-12.996 29.062-29.051 29.062zm107.87-50.305c-41.363 0-74.891-33.551-74.891-74.914 0-41.352 33.527-74.891 74.891-74.891 41.363 0 74.879 33.527 74.879 74.891 0.011719 41.363-33.516 74.914-74.879 74.914z"/>
 </g>
</svg>
