<?xml version="1.0" encoding="UTF-8"?>
<svg width="81px" height="22px" viewBox="0 0 81 22" version="1.1" xmlns="http://www.w3.org/2000/svg" xmlns:xlink="http://www.w3.org/1999/xlink">
    <!-- Generator: Sketch 43.2 (39069) - http://www.bohemiancoding.com/sketch -->
    <title>wordmark</title>
    <desc>Created with Sketch.</desc>
    <defs></defs>
    <g id="Page-1" stroke="none" stroke-width="1" fill="none" fill-rule="evenodd">
        <g id="wordmark">
            <path d="M5.80959588,7.41363599 L4.25723423,7.41363599 L4.75116748,4.99716603 L6.2800085,4.99716603 L6.42113229,4.34026158 C6.73474227,2.87003949 7.30707191,1.77911979 8.13813836,1.06746974 C8.96920481,0.355819688 10.2079457,0 11.8543981,0 C12.1993691,0 12.5913757,0.0156404259 13.0304296,0.0469217468 C13.4694836,0.0782030677 13.9006909,0.113394026 14.3240643,0.152495677 C14.7474378,0.191597328 15.1433645,0.234608499 15.5118562,0.281530481 C15.8803479,0.328452462 16.1665128,0.37537374 16.3703592,0.422295721 L14.2535024,12.9269412 C14.2221414,13.0989885 14.194701,13.2514827 14.1711802,13.3844283 C14.1476595,13.5173739 14.1358993,13.6464074 14.1358993,13.7715327 C14.1358993,14.3189558 14.3475829,14.5926633 14.7709563,14.5926633 C14.9434418,14.5926633 15.1198448,14.5770228 15.3001705,14.5457415 C15.4804963,14.5144602 15.9771529,14.4753594 16.2437214,14.3815154 L15.7481316,16.7276027 L14.7709563,16.8537992 C14.4213038,16.8994353 14.1633414,16.9309301 13.8889327,16.9622115 C13.6145239,16.9934928 13.3518795,17.0091332 13.1009915,17.0091332 C12.4110496,17.0091332 11.8857607,16.8761896 11.5251092,16.6102984 C11.1644578,16.3444071 10.9841347,15.898655 10.9841347,15.2730286 C10.9841347,14.975856 11.0154952,14.6786879 11.0782172,14.3815154 L13.0539503,2.60415695 C12.8814648,2.55723497 12.6305805,2.51422379 12.3012901,2.47512214 C11.9719996,2.43602049 11.6505542,2.41646996 11.3369442,2.41646996 C10.6470022,2.41646996 10.1530739,2.65498645 9.85514443,3.1320266 C9.55721495,3.60906674 9.32985112,4.23077367 9.17304613,4.99716603 L10.8665316,4.99716603 L10.3961189,7.41363599 L8.70263351,7.41363599 L7.26787501,16.7276027 C7.12675052,17.5252764 6.95818768,18.2290956 6.76218144,18.8390813 C6.5661752,19.4490671 6.31137091,19.9573809 5.99776093,20.3640381 C5.68415095,20.7706953 5.28822428,21.0795937 4.80996906,21.2907426 C4.33171384,21.5018915 3.747624,21.6074644 3.05768204,21.6074644 C2.49318407,21.6074644 1.94045477,21.5644532 1.39947755,21.4784296 C0.85850033,21.392406 0.392012478,21.2164512 -3.55271368e-15,20.9505599 L0.799701457,18.8156205 C1.06626994,18.9251051 1.33283443,18.995487 1.59940291,19.0267683 C1.8659714,19.0580496 2.20309707,19.0736901 2.61079005,19.0736901 C3.11256602,19.0736901 3.50065256,18.8781847 3.77506129,18.4871682 C4.04947003,18.0961517 4.24939339,17.5096358 4.37483738,16.7276027 L5.80959588,7.41363599 Z M18.2413185,4.99716603 L21.1343562,4.99716603 L18.6501727,16.3288173 L15.7481316,16.7276027 L18.2413185,4.99716603 Z M18.7117312,1.66572201 C18.7117312,1.14958022 18.880294,0.750749356 19.2174247,0.469217468 C19.5545555,0.18768558 19.9818426,0.0469217468 20.4992991,0.0469217468 C21.0010751,0.0469217468 21.4283623,0.18768558 21.7811735,0.469217468 C22.1339847,0.750749356 22.3103877,1.14958022 22.3103877,1.66572201 C22.3103877,2.16622315 22.1339847,2.5611439 21.7811735,2.85049612 C21.4283623,3.13984834 21.0010751,3.28452228 20.4992991,3.28452228 C19.9818426,3.28452228 19.5545555,3.13984834 19.2174247,2.85049612 C18.880294,2.5611439 18.7117312,2.16622315 18.7117312,1.66572201 Z M22.9347536,4.99716603 L25.075131,4.99716603 L24.9575278,7.06172289 L25.0516104,7.06172289 C25.2711373,6.76455034 25.5220216,6.47129236 25.8042706,6.18194014 C26.0865195,5.89258792 26.4001248,5.638431 26.7450958,5.41946175 C27.0900668,5.20049251 27.458553,5.02062761 27.8505655,4.87986167 C28.2425779,4.73909572 28.6659451,4.66871381 29.1206795,4.66871381 C29.920385,4.66871381 30.5632758,4.94242126 31.0493713,5.48984437 C31.5354668,6.03726749 31.7785108,6.89749091 31.7785108,8.07054045 C31.7785108,9.39999659 31.6021079,10.6160397 31.2492967,11.7187063 C30.8964854,12.8213728 30.4260775,13.7676186 29.8380588,14.5574719 C29.2500401,15.3473253 28.5601085,15.961212 27.7682432,16.3991505 C26.976378,16.837089 26.1492441,17.056055 25.2868167,17.056055 C24.8791237,17.056055 24.4949572,17.0169539 24.1343057,16.9387506 C23.7736543,16.8605473 23.5070898,16.7588845 23.3346043,16.6337592 L22.3232171,21.4197774 L19.4537002,21.4197774 L22.9347536,4.99716603 Z M23.8285375,14.2407502 C24.22055,14.5066414 24.6595974,14.639585 25.1456929,14.639585 C25.6317884,14.639585 26.0943561,14.4753605 26.5334101,14.1469067 C26.9724641,13.8184528 27.3605506,13.3805209 27.6976814,12.8330977 C28.0348121,12.2856746 28.3013766,11.6483273 28.4973828,10.9210366 C28.6933891,10.1937459 28.7913907,9.43127509 28.7913907,8.63360141 C28.7913907,8.18002226 28.6855489,7.80856214 28.4738622,7.51920992 C28.2621754,7.2298577 27.9760106,7.08518377 27.6153591,7.08518377 C27.3331102,7.08518377 27.0587055,7.15556568 26.7921371,7.29633163 C26.5255686,7.43709757 26.2746843,7.61305236 26.0394769,7.82420128 C25.8042694,8.03535019 25.5925858,8.27386669 25.4044198,8.53975792 C25.2162538,8.80564914 25.0516111,9.06371617 24.9104866,9.31396674 L23.8285375,14.2407502 Z M33.7670733,4.99716603 L35.9074507,4.99716603 L35.7898476,7.06172289 L35.8839301,7.06172289 C36.1034571,6.76455034 36.3543413,6.47129236 36.6365903,6.18194014 C36.9188393,5.89258792 37.2324446,5.638431 37.5774155,5.41946175 C37.9223865,5.20049251 38.2908727,5.02062761 38.6828852,4.87986167 C39.0748977,4.73909572 39.4982648,4.66871381 39.9529993,4.66871381 C40.7527047,4.66871381 41.3955956,4.94242126 41.881691,5.48984437 C42.3677865,6.03726749 42.6108306,6.89749091 42.6108306,8.07054045 C42.6108306,9.39999659 42.4344276,10.6160397 42.0816164,11.7187063 C41.7288052,12.8213728 41.2583972,13.7676186 40.6703785,14.5574719 C40.0823598,15.3473253 39.3924282,15.961212 38.600563,16.3991505 C37.8086978,16.837089 36.9815639,17.056055 36.1191364,17.056055 C35.7114434,17.056055 35.327277,17.0169539 34.9666255,16.9387506 C34.605974,16.8605473 34.3394095,16.7588845 34.166924,16.6337592 L33.1555369,21.4197774 L30.2860199,21.4197774 L33.7670733,4.99716603 Z M34.6608573,14.2407502 C35.0528698,14.5066414 35.4919171,14.639585 35.9780126,14.639585 C36.4641081,14.639585 36.9266759,14.4753605 37.3657299,14.1469067 C37.8047838,13.8184528 38.1928704,13.3805209 38.5300011,12.8330977 C38.8671318,12.2856746 39.1336963,11.6483273 39.3297026,10.9210366 C39.5257088,10.1937459 39.6237104,9.43127509 39.6237104,8.63360141 C39.6237104,8.18002226 39.5178687,7.80856214 39.3061819,7.51920992 C39.0944952,7.2298577 38.8083304,7.08518377 38.4476789,7.08518377 C38.1654299,7.08518377 37.8910253,7.15556568 37.6244568,7.29633163 C37.3578883,7.43709757 37.1070041,7.61305236 36.8717966,7.82420128 C36.6365891,8.03535019 36.4249056,8.27386669 36.2367396,8.53975792 C36.0485736,8.80564914 35.8839308,9.06371617 35.7428063,9.31396674 L34.6608573,14.2407502 Z M51.1851697,15.6014808 C50.6990743,16.008138 50.0718637,16.3522273 49.3035193,16.6337592 C48.5351748,16.9152911 47.6413998,17.056055 46.6221673,17.056055 C45.3520469,17.056055 44.3524301,16.6845948 43.6232868,15.9416635 C42.8941436,15.1987321 42.5295775,14.1625539 42.5295775,12.8330977 C42.5295775,11.5818449 42.7255808,10.4518241 43.1175933,9.44300154 C43.5096058,8.43417894 44.0231344,7.57786563 44.6581946,6.8740359 C45.2932548,6.17020618 46.0106269,5.62670139 46.8103324,5.2435052 C47.6100378,4.86030902 48.4097313,4.66871381 49.2094367,4.66871381 C49.8523372,4.66871381 50.4050665,4.75082604 50.8676412,4.91505298 C51.3302159,5.07927991 51.7104623,5.30606609 52.0083918,5.5954183 C52.3063213,5.88477052 52.525845,6.21712957 52.6669695,6.59250542 C52.808094,6.96788128 52.8786552,7.36671213 52.8786552,7.78900997 C52.8786552,8.43027705 52.7140124,8.99333238 52.3847219,9.47819285 C52.0554314,9.96305333 51.5967837,10.3657943 51.008765,10.6864278 C50.4207463,11.0070614 49.7112143,11.249488 48.8801479,11.4137149 C48.0490814,11.5779418 47.1396261,11.6600541 46.1517547,11.6600541 C46.0263107,11.6600541 45.9087087,11.656144 45.7989452,11.6483236 C45.6891817,11.6405033 45.5715797,11.6365932 45.4461358,11.6365932 C45.4147748,11.8242811 45.3912544,11.9924157 45.3755739,12.141002 C45.3598934,12.2895883 45.3520532,12.426442 45.3520532,12.5515673 C45.3520532,13.255397 45.5362963,13.7793513 45.9047881,14.1234458 C46.2732798,14.4675403 46.7946486,14.639585 47.46891,14.639585 C48.158852,14.639585 48.7782224,14.5379222 49.3270399,14.3345936 C49.8758574,14.1312651 50.2913844,13.9279395 50.5736333,13.7246109 L51.1851697,15.6014808 Z M45.8695071,9.80664508 C46.3085611,9.80664508 46.7750489,9.79100465 47.2689847,9.75972333 C47.7629204,9.72844201 48.2215681,9.65414999 48.6449416,9.53684504 C49.0683151,9.41954008 49.421121,9.2474954 49.70337,9.02070582 C49.985619,8.79391624 50.1267413,8.48501783 50.1267413,8.09400132 C50.1267413,7.85939141 50.0404999,7.62087492 49.8680144,7.37844468 C49.6955289,7.13601445 49.3348828,7.01480115 48.7860654,7.01480115 C48.0961234,7.01480115 47.4963533,7.28068838 46.9867371,7.81247084 C46.4771209,8.3442533 46.1047146,9.0089714 45.8695071,9.80664508 Z M56.6783062,4.99716603 L56.7018269,7.06172289 L56.7959094,7.06172289 C57.1408804,6.43609647 57.5603274,5.90432199 58.0542631,5.4663835 C58.5481989,5.02844501 59.1714894,4.80947905 59.9241533,4.80947905 C60.2534438,4.80947905 60.6454504,4.87204075 61.1001849,4.99716603 L60.3710453,7.50747949 C60.2142403,7.46055751 60.0652778,7.42145644 59.9241533,7.39017512 C59.7830288,7.3588938 59.6340663,7.34325337 59.4772613,7.34325337 C58.8343609,7.34325337 58.2424309,7.55048902 57.7014537,7.96496652 C57.1604765,8.37944402 56.7488695,8.86038712 56.4666205,9.40781023 L54.9377795,16.7276027 L52.0447419,16.7276027 L54.5379288,4.99716603 L56.6783062,4.99716603 Z" id="flipper" fill="#272C2E"></path>
            <g id="cloud" opacity="0.639999986" transform="translate(58.636780, 2.682927)" fill="#1AB6FF">
                <g id="Cloud">
                    <path d="M22.2040638,9.34865455 C22.2040638,12.2259376 19.8237881,14.5598329 16.8895211,14.5598329 L4.01560493,14.5598329 C1.79741896,14.5598329 0,12.7960495 0,10.6213846 C0,8.44894684 1.79741896,6.6851634 4.01560493,6.6851634 C4.1776946,6.6851634 4.33534345,6.69852539 4.4918821,6.71522789 C4.45080458,6.44130698 4.42860052,6.16070507 4.42860052,5.87342216 C4.42860052,2.67656467 7.07199431,0.0843374971 10.3348815,0.0843374971 C13.0071406,0.0843374971 15.2630734,1.82362394 15.9924769,4.21208069 C16.2844604,4.1642002 16.583105,4.13858971 16.8906313,4.13858971 C19.8237881,4.13858971 22.2040638,6.46914447 22.2040638,9.34865455 Z" id="Shape"></path>
                </g>
            </g>
        </g>
    </g>
</svg>
