<svg width="143" height="24" viewBox="0 0 805 135" xmlns="http://www.w3.org/2000/svg">
<path d="M202.299 0.420166H178.948V103.419C178.948 111.015 177.352 115.572 171.695 115.572C168.505 115.572 165.749 114.965 163.863 114.205L162.993 132.283C164.298 133.043 170.97 134.562 177.932 134.562C186.054 134.562 192.291 131.372 196.062 126.814C200.123 121.953 202.299 114.205 202.299 103.115V0.420166ZM284.828 30.3476H261.621V70.1496C261.621 80.0242 257.85 86.8604 249.582 86.8604C241.315 86.8604 238.995 80.9355 238.995 72.2763V30.3476H215.788V75.6187C215.788 86.4048 217.529 92.9369 221.01 98.1021C224.636 103.115 231.163 106.913 241.461 106.913C251.759 106.913 259.301 101.292 262.347 96.7349L262.492 105.242H284.828V30.3476ZM383.746 28.9801C402.021 28.9801 408.548 42.045 408.548 60.123V105.242H385.196V64.5288C385.196 56.4772 383.746 48.8813 375.769 48.8813C367.646 48.8813 364.165 56.4772 364.165 66.8075V105.242H340.959V64.5288C340.959 55.2619 338.929 48.8813 331.386 48.8813C323.264 48.8813 319.783 56.4772 319.783 66.8075V105.242H296.576V30.3476H319.783L319.638 41.1335L319.928 40.9818C323.554 34.7532 330.516 28.9801 339.653 28.9801C349.516 28.9801 357.349 32.4742 360.975 42.6526C366.051 33.5376 373.158 28.9801 383.746 28.9801ZM499.635 67.8709C499.635 45.843 486.581 28.9801 465.985 28.9801C455.107 28.9801 447.42 33.386 442.198 39.9184H441.908L442.053 30.3476H420.006V132.739H443.213V95.8234C447.709 102.811 455.252 106.913 465.84 106.913C486.581 106.913 499.635 89.8988 499.635 67.8709ZM475.993 67.5671C475.993 79.1128 469.175 87.0125 459.168 87.0125C449.305 87.0125 442.488 79.1128 442.488 67.5671C442.488 56.0215 449.305 48.1218 459.168 48.1218C469.175 48.1218 475.993 56.0215 475.993 67.5671ZM555.911 66.9592C558.231 69.3899 561.712 74.2512 561.712 82.1508C561.712 89.8985 558.522 95.9752 553.3 100.381C548.079 104.634 540.971 106.913 531.398 106.913C520.665 106.913 509.352 103.419 501.23 95.3678L509.932 80.9358C515.734 86.1009 525.307 90.0508 531.109 90.0508C536.911 90.0508 540.972 88.5313 540.972 83.67C540.972 79.4593 533.137 77.0723 529.343 75.9165L529.343 75.9163C528.757 75.7378 528.267 75.5886 527.918 75.4667C525.162 74.7071 521.101 73.4917 517.765 71.9725C514.429 70.4533 505.581 65.7441 505.581 52.3755C505.581 37.7915 517.765 28.8285 532.704 28.8285C547.643 28.8285 556.056 34.6011 560.117 38.0951L552.575 52.3755C548.514 49.0333 540.391 45.0834 534.589 45.0834C529.078 45.0834 526.033 46.6027 526.033 50.5526C526.033 54.5024 531.543 56.3251 536.475 57.8442C541.406 59.3634 543.582 60.123 546.627 61.3384C549.818 62.5537 553.445 64.5285 555.911 66.9592ZM615.233 30.4993H599.423V10.1427H576.072V30.4993H565.919V48.8813H576.072V77.8975C576.072 89.2912 577.522 95.5198 581.148 99.9253C584.774 104.331 590.286 106.913 598.553 106.913C606.221 106.913 612.201 105.273 614.518 104.637L614.518 104.637L614.528 104.634C614.645 104.602 614.752 104.573 614.85 104.546C614.937 104.523 615.016 104.501 615.087 104.483L613.927 85.4933C613.927 85.4933 610.592 86.8604 606.965 86.8604C603.92 86.8604 602.47 86.2528 601.454 85.0375C600.294 83.6702 599.423 82.1509 599.423 75.7704V48.8813H615.233V30.4993ZM680.066 37.6397C685.577 43.1087 688.624 50.4006 688.624 63.0096V105.242H666.433L665.998 97.3425C665.927 97.4167 665.855 97.4926 665.781 97.5701C662.679 100.826 656.88 106.913 645.546 106.913C632.927 106.913 619.584 99.7733 619.584 83.0625C619.584 66.3517 634.232 60.7307 647.431 60.123L665.417 59.3634V57.6925C665.417 49.7929 660.051 45.6909 650.768 45.6909C641.631 45.6909 632.492 49.9448 628.866 52.3755L622.774 36.576C628.866 33.3857 640.035 28.9801 653.379 28.9801C666.723 28.9801 674.409 32.1707 680.066 37.6397ZM653.669 91.4179C659.906 91.4179 664.111 87.1642 665.561 84.5817V72.2763L654.104 73.0359C646.997 73.3397 642.791 76.5299 642.791 82.1508C642.791 87.9237 647.287 91.4179 653.669 91.4179ZM751.282 30.3476C751.282 30.3476 748.816 28.9801 744.03 28.9801C736.343 28.9801 730.396 32.7783 726.335 40.9818H726.044L726.19 30.3476H702.983V105.242H726.19V71.9725C726.19 63.6171 728.076 58.7557 729.816 56.3251C731.557 53.8944 735.327 50.8563 740.548 50.8563C744.61 50.8563 747.655 51.9197 748.96 52.6792H749.976L751.282 30.3476ZM788.847 30.4993H804.657V48.8813H788.847V75.7704C788.847 82.1509 789.718 83.6702 790.878 85.0375C791.893 86.2528 793.344 86.8604 796.389 86.8604C800.015 86.8604 803.351 85.4933 803.351 85.4933L804.513 104.483C804.359 104.523 804.169 104.575 803.944 104.637C801.628 105.272 795.646 106.913 787.977 106.913C779.71 106.913 774.198 104.331 770.572 99.9253C766.946 95.5198 765.496 89.2912 765.496 77.8975V48.8813H755.343V30.4993H765.496V10.1427H788.847V30.4993Z"/>
<path d="M87.1001 54.6V1L54.3371 40.329L20.1001 81.4H46.9001V135L113.9 54.6H87.1001Z" />
</svg>
